<svg width="400" height="320" viewBox="0 0 400 320" fill="none" xmlns="http://www.w3.org/2000/svg">
<path d="M360 40H180L140 0H40C18 0 0 18 0 40V120H400V80C400 58 382 40 360 40Z" fill="#005086"/>
<path d="M360 40H40C18 40 0 58 0 80V280C0 302 18 320 40 320H360C382 320 400 302 400 280V80C400 58 382 40 360 40Z" fill="url(#paint0_linear)"/>
<path d="M48.5688 155.272C49.5768 151.912 50.4408 148.96 51.1608 146.416C51.8808 143.872 52.6008 141.256 53.3208 138.568C54.0408 135.88 54.8088 132.856 55.6248 129.496C56.4408 126.136 57.4728 121.96 58.7208 116.968C58.9608 116.056 59.2248 115.48 59.5128 115.24C59.8488 114.952 60.5688 114.808 61.6728 114.808C62.1528 114.808 62.8968 114.856 63.9048 114.952C64.9608 115 66.0168 115.216 67.0728 115.6C68.1288 115.936 69.0648 116.464 69.8808 117.184C70.6968 117.856 71.1048 118.84 71.1048 120.136C71.1048 121.288 70.7688 123.064 70.0968 125.464C69.4728 127.816 68.6568 130.504 67.6488 133.528C66.6408 136.552 65.5128 139.72 64.2648 143.032C63.0648 146.296 61.8648 149.392 60.6648 152.32C59.4648 155.248 58.3608 157.816 57.3528 160.024C56.3928 162.232 55.6728 163.768 55.1928 164.632C54.6648 165.544 53.7288 166 52.3848 166H44.8248C43.6248 166 42.6168 165.784 41.8008 165.352C41.0328 164.872 40.3848 164.248 39.8568 163.48C39.3288 162.712 38.8968 161.848 38.5608 160.888C38.2248 159.88 37.9368 158.872 37.6968 157.864C36.0648 151.048 34.6488 145.144 33.4488 140.152C32.2968 135.112 31.3368 130.912 30.5688 127.552C29.8008 124.144 29.2248 121.528 28.8408 119.704C28.4568 117.88 28.2648 116.752 28.2648 116.32C28.2648 115.792 28.6488 115.408 29.4168 115.168C30.1848 114.88 31.4808 114.736 33.3048 114.736C35.2248 114.736 36.7848 114.928 37.9848 115.312C39.2328 115.696 40.2168 116.248 40.9368 116.968C41.7048 117.64 42.2568 118.456 42.5928 119.416C42.9768 120.328 43.2408 121.336 43.3848 122.44C43.5288 123.256 43.6728 124.24 43.8168 125.392C43.9608 126.496 44.2008 128.2 44.5368 130.504C44.9208 132.808 45.4248 135.928 46.0488 139.864C46.6728 143.752 47.5128 148.888 48.5688 155.272ZM81.6922 166C80.2042 166 78.9802 165.856 78.0202 165.568C77.1082 165.232 76.3642 164.776 75.7882 164.2C75.2602 163.624 74.8762 162.928 74.6362 162.112C74.4442 161.248 74.3482 160.264 74.3482 159.16C74.3482 158.44 74.3722 157.432 74.4202 156.136C74.5162 154.792 74.6602 152.968 74.8522 150.664C75.0442 148.312 75.2602 145.36 75.5002 141.808C75.7882 138.208 76.1242 133.768 76.5082 128.488C76.5562 127.432 76.6762 126.808 76.8682 126.616C77.0122 126.472 77.3962 126.4 78.0202 126.4H80.8282C82.3162 126.4 83.5162 126.544 84.4282 126.832C85.3882 127.12 86.1322 127.552 86.6602 128.128C87.2362 128.704 87.6202 129.4 87.8122 130.216C88.0522 131.032 88.1722 131.944 88.1722 132.952C88.1722 133.672 88.1242 134.752 88.0282 136.192C87.9322 137.632 87.7882 139.6 87.5962 142.096C87.4522 144.544 87.2362 147.616 86.9482 151.312C86.6602 154.96 86.3002 159.376 85.8682 164.56C85.8202 165.136 85.7002 165.52 85.5082 165.712C85.3162 165.904 84.9082 166 84.2842 166H81.6922ZM76.5802 117.904C76.5802 115.984 77.2762 114.472 78.6682 113.368C80.0602 112.264 81.9322 111.712 84.2842 111.712C86.3482 111.712 87.8362 112.144 88.7482 113.008C89.7082 113.824 90.1882 114.928 90.1882 116.32C90.1882 118.096 89.5162 119.584 88.1722 120.784C86.8762 121.936 84.9562 122.512 82.4122 122.512C78.5242 122.512 76.5802 120.976 76.5802 117.904ZM119.078 159.664C119.078 158.608 119.15 157.24 119.294 155.56C119.486 153.832 119.654 152.032 119.798 150.16C119.99 148.24 120.158 146.392 120.302 144.616C120.494 142.84 120.59 141.352 120.59 140.152C120.59 138.904 120.278 137.8 119.654 136.84C119.078 135.832 117.926 135.328 116.198 135.328C114.518 135.328 113.126 135.736 112.022 136.552C110.918 137.368 109.982 138.856 109.214 141.016C108.494 143.176 107.894 146.152 107.414 149.944C106.934 153.736 106.478 158.608 106.046 164.56C105.998 165.136 105.878 165.52 105.686 165.712C105.494 165.904 105.086 166 104.462 166H101.87C100.382 166 99.1582 165.856 98.1982 165.568C97.2862 165.232 96.5422 164.776 95.9662 164.2C95.4382 163.624 95.0542 162.928 94.8142 162.112C94.6222 161.248 94.5262 160.264 94.5262 159.16C94.5262 158.44 94.5502 157.432 94.5982 156.136C94.6942 154.792 94.8382 152.968 95.0302 150.664C95.2222 148.312 95.4382 145.36 95.6782 141.808C95.9662 138.208 96.3022 133.768 96.6862 128.488C96.7342 127.432 96.8542 126.808 97.0462 126.616C97.1902 126.472 97.5742 126.4 98.1982 126.4H101.006C102.446 126.4 103.622 126.568 104.534 126.904C105.494 127.24 106.262 127.696 106.838 128.272C107.414 128.8 107.822 129.448 108.062 130.216C108.302 130.936 108.446 131.68 108.494 132.448C109.982 129.904 111.686 128.152 113.606 127.192C115.526 126.184 117.926 125.68 120.806 125.68C122.822 125.68 124.574 125.896 126.062 126.328C127.55 126.76 128.774 127.504 129.734 128.56C130.742 129.568 131.486 130.912 131.966 132.592C132.446 134.224 132.686 136.264 132.686 138.712C132.686 139.48 132.638 140.584 132.542 142.024C132.446 143.464 132.326 145.048 132.182 146.776C132.038 148.456 131.87 150.232 131.678 152.104C131.534 153.928 131.39 155.632 131.246 157.216C131.102 158.8 130.982 160.192 130.886 161.392C130.79 162.592 130.742 163.384 130.742 163.768C130.742 164.824 130.622 165.472 130.382 165.712C130.142 165.904 129.614 166 128.798 166H126.494C124.958 166 123.71 165.856 122.75 165.568C121.79 165.28 121.046 164.872 120.518 164.344C119.99 163.816 119.606 163.168 119.366 162.4C119.174 161.584 119.078 160.672 119.078 159.664ZM154.584 136.12C154.44 137.944 154.272 139.744 154.08 141.52C153.936 143.296 153.792 144.976 153.648 146.56C153.504 148.144 153.384 149.56 153.288 150.808C153.24 152.056 153.216 153.016 153.216 153.688C153.216 154.936 153.36 155.776 153.648 156.208C153.936 156.592 154.416 156.784 155.088 156.784C155.616 156.784 156.072 156.688 156.456 156.496C156.84 156.304 157.2 156.088 157.536 155.848C157.872 155.608 158.16 155.392 158.4 155.2C158.688 155.008 159 154.912 159.336 154.912C159.672 154.912 159.984 155.104 160.272 155.488C160.56 155.872 160.704 156.76 160.704 158.152C160.704 160.792 159.984 162.88 158.544 164.416C157.104 165.952 154.632 166.72 151.128 166.72C147.672 166.72 145.104 165.928 143.424 164.344C141.792 162.712 140.976 160.24 140.976 156.928C140.976 156.208 141 155.368 141.048 154.408C141.144 153.4 141.264 152.104 141.408 150.52C141.552 148.936 141.72 146.992 141.912 144.688C142.152 142.384 142.392 139.528 142.632 136.12H138.816C138.432 136.12 138.192 136.048 138.096 135.904C138.048 135.712 138.024 135.448 138.024 135.112L138.24 131.44C138.288 130.816 138.36 130.216 138.456 129.64C138.6 129.016 138.84 128.464 139.176 127.984C139.56 127.504 140.088 127.12 140.76 126.832C141.432 126.544 142.32 126.4 143.424 126.4C143.76 125.536 144.144 124.504 144.576 123.304C145.008 122.104 145.44 120.952 145.872 119.848C146.304 118.696 146.712 117.736 147.096 116.968C147.528 116.2 147.912 115.816 148.248 115.816H150.336C152.352 115.816 153.744 116.44 154.512 117.688C155.28 118.936 155.664 120.424 155.664 122.152C155.664 123.112 155.592 124.528 155.448 126.4H163.008C163.776 126.4 164.16 126.736 164.16 127.408L163.872 131.296C163.776 132.736 163.368 133.912 162.648 134.824C161.976 135.688 160.56 136.12 158.4 136.12H154.584ZM165.702 157.144C165.702 152.824 167.646 149.44 171.534 146.992C175.422 144.544 181.158 143.224 188.742 143.032C188.79 142.504 188.814 142.072 188.814 141.736C188.862 141.352 188.886 140.896 188.886 140.368C188.886 138.832 188.598 137.608 188.022 136.696C187.446 135.784 186.246 135.328 184.422 135.328C183.414 135.328 182.598 135.472 181.974 135.76C181.35 136.048 180.846 136.456 180.462 136.984C180.078 137.464 179.766 138.064 179.526 138.784C179.286 139.504 179.07 140.296 178.878 141.16C178.782 141.592 178.566 141.88 178.23 142.024C177.894 142.12 177.366 142.168 176.646 142.168C171.75 142.168 169.302 140.32 169.302 136.624C169.302 135.136 169.638 133.72 170.31 132.376C171.03 131.032 172.062 129.88 173.406 128.92C174.798 127.912 176.526 127.12 178.59 126.544C180.654 125.968 183.054 125.68 185.79 125.68C191.118 125.68 194.982 126.784 197.382 128.992C199.782 131.2 200.982 134.32 200.982 138.352C200.982 138.88 200.91 139.84 200.766 141.232C200.67 142.576 200.526 144.016 200.334 145.552C200.19 147.04 200.046 148.456 199.902 149.8C199.806 151.144 199.758 152.08 199.758 152.608C199.758 153.808 199.974 154.672 200.406 155.2C200.838 155.68 201.318 156.016 201.846 156.208C202.422 156.4 202.926 156.544 203.358 156.64C203.79 156.736 204.006 156.976 204.006 157.36C204.006 158.416 203.862 159.496 203.574 160.6C203.286 161.704 202.806 162.712 202.134 163.624C201.51 164.536 200.622 165.28 199.47 165.856C198.366 166.432 196.998 166.72 195.366 166.72C193.062 166.72 191.334 166.168 190.182 165.064C189.03 163.96 188.262 162.424 187.878 160.456C186.726 162.136 185.214 163.6 183.342 164.848C181.518 166.096 179.118 166.72 176.142 166.72C174.702 166.72 173.334 166.552 172.038 166.216C170.79 165.88 169.686 165.328 168.726 164.56C167.814 163.792 167.07 162.808 166.494 161.608C165.966 160.36 165.702 158.872 165.702 157.144ZM188.094 148.936C186.846 148.936 185.622 149.032 184.422 149.224C183.222 149.416 182.142 149.728 181.182 150.16C180.27 150.544 179.526 151.072 178.95 151.744C178.374 152.416 178.086 153.232 178.086 154.192C178.086 155.296 178.422 156.064 179.094 156.496C179.814 156.928 180.582 157.144 181.398 157.144C182.166 157.144 182.934 156.976 183.702 156.64C184.47 156.304 185.142 155.8 185.718 155.128C186.342 154.408 186.87 153.544 187.302 152.536C187.734 151.528 187.998 150.328 188.094 148.936ZM231.976 157.504C230.776 159.664 229.312 161.272 227.584 162.328C225.856 163.336 223.696 163.84 221.104 163.84C219.136 163.84 217.336 163.528 215.704 162.904C214.072 162.28 212.68 161.296 211.528 159.952C210.376 158.608 209.464 156.928 208.792 154.912C208.168 152.848 207.856 150.4 207.856 147.568C207.856 145.264 208.096 142.84 208.576 140.296C209.056 137.704 209.92 135.328 211.168 133.168C212.464 131.008 214.216 129.232 216.424 127.84C218.632 126.4 221.464 125.68 224.92 125.68C226.36 125.68 227.584 125.848 228.592 126.184C229.648 126.472 230.536 126.88 231.256 127.408C232.024 127.936 232.624 128.56 233.056 129.28C233.536 130 233.896 130.768 234.136 131.584C234.136 131.632 234.136 131.464 234.136 131.08C234.184 130.648 234.232 130.168 234.28 129.64C234.328 129.112 234.352 128.608 234.352 128.128C234.4 127.6 234.424 127.264 234.424 127.12C234.472 126.64 234.784 126.4 235.36 126.4H238.672C241.168 126.4 242.968 126.928 244.072 127.984C245.224 128.992 245.8 130.936 245.8 133.816C245.8 134.2 245.776 135.088 245.728 136.48C245.68 137.824 245.584 139.456 245.44 141.376C245.344 143.296 245.2 145.432 245.008 147.784C244.816 150.088 244.6 152.416 244.36 154.768C244.12 157.12 243.856 159.376 243.568 161.536C243.28 163.696 242.968 165.592 242.632 167.224C242.296 168.856 241.72 170.44 240.904 171.976C240.088 173.512 238.936 174.88 237.448 176.08C235.96 177.28 234.04 178.24 231.688 178.96C229.384 179.68 226.552 180.04 223.192 180.04C220.648 180.04 218.416 179.8 216.496 179.32C214.624 178.84 213.064 178.192 211.816 177.376C210.568 176.608 209.608 175.72 208.936 174.712C208.312 173.704 208 172.696 208 171.688C208 170.776 208.192 169.984 208.576 169.312C208.96 168.64 209.464 168.088 210.088 167.656C210.712 167.224 211.384 166.888 212.104 166.648C212.872 166.456 213.592 166.36 214.264 166.36C215.08 166.36 215.68 166.6 216.064 167.08C216.448 167.56 216.88 168.088 217.36 168.664C217.84 169.288 218.512 169.84 219.376 170.32C220.24 170.8 221.584 171.04 223.408 171.04C226.576 171.04 228.784 169.864 230.032 167.512C231.328 165.208 231.976 161.872 231.976 157.504ZM225.928 154.264C227.656 154.264 229 153.856 229.96 153.04C230.968 152.224 231.736 151.24 232.264 150.088C232.792 148.936 233.128 147.736 233.272 146.488C233.416 145.24 233.488 144.16 233.488 143.248C233.488 140.368 233.032 138.328 232.12 137.128C231.256 135.88 229.936 135.256 228.16 135.256C226.384 135.256 224.992 135.736 223.984 136.696C222.976 137.656 222.208 138.808 221.68 140.152C221.2 141.448 220.888 142.768 220.744 144.112C220.6 145.408 220.528 146.416 220.528 147.136C220.528 149.536 220.936 151.336 221.752 152.536C222.568 153.688 223.96 154.264 225.928 154.264ZM268.799 166.72C266.687 166.72 264.575 166.456 262.463 165.928C260.399 165.4 258.527 164.488 256.847 163.192C255.215 161.896 253.871 160.168 252.815 158.008C251.759 155.848 251.231 153.136 251.231 149.872C251.231 148.672 251.327 147.232 251.519 145.552C251.711 143.872 252.071 142.144 252.599 140.368C253.175 138.592 253.943 136.84 254.903 135.112C255.911 133.336 257.207 131.752 258.791 130.36C260.375 128.968 262.295 127.84 264.551 126.976C266.807 126.112 269.495 125.68 272.615 125.68C275.111 125.68 277.223 125.968 278.951 126.544C280.679 127.12 282.071 127.912 283.127 128.92C284.183 129.88 284.951 131.008 285.431 132.304C285.911 133.6 286.151 134.992 286.151 136.48C286.151 138.688 285.695 140.56 284.783 142.096C283.919 143.632 282.767 144.928 281.327 145.984C279.935 146.992 278.375 147.784 276.647 148.36C274.919 148.936 273.215 149.392 271.535 149.728C269.855 150.016 268.295 150.208 266.855 150.304C265.463 150.352 264.383 150.376 263.615 150.376C263.615 151.288 263.735 152.2 263.975 153.112C264.263 153.976 264.671 154.744 265.199 155.416C265.727 156.088 266.423 156.64 267.287 157.072C268.151 157.504 269.207 157.72 270.455 157.72C271.703 157.72 272.663 157.528 273.335 157.144C274.055 156.712 274.631 156.256 275.063 155.776C275.495 155.248 275.855 154.792 276.143 154.408C276.479 153.976 276.911 153.76 277.439 153.76C277.679 153.76 278.087 153.832 278.663 153.976C279.287 154.072 279.911 154.312 280.535 154.696C281.159 155.08 281.711 155.608 282.191 156.28C282.671 156.952 282.911 157.816 282.911 158.872C282.911 160.264 282.479 161.464 281.615 162.472C280.751 163.48 279.623 164.296 278.231 164.92C276.887 165.544 275.375 166 273.695 166.288C272.015 166.576 270.383 166.72 268.799 166.72ZM270.167 135.256C269.111 135.256 268.199 135.568 267.431 136.192C266.711 136.768 266.087 137.512 265.559 138.424C265.079 139.336 264.695 140.344 264.407 141.448C264.167 142.552 263.975 143.608 263.831 144.616C266.807 144.568 269.207 144.064 271.031 143.104C272.903 142.144 273.839 140.776 273.839 139C273.839 138.04 273.527 137.176 272.903 136.408C272.327 135.64 271.415 135.256 270.167 135.256Z" fill="white"/>
<path d="M136.455 222.272C136.935 219.728 137.367 217.52 137.751 215.648C138.135 213.728 138.471 211.952 138.759 210.32C139.047 208.688 139.311 207.08 139.551 205.496C139.839 203.864 140.127 202.064 140.415 200.096C140.751 198.08 141.111 195.8 141.495 193.256C141.927 190.664 142.431 187.568 143.007 183.968C143.151 183.056 143.391 182.48 143.727 182.24C144.063 181.952 144.903 181.808 146.247 181.808C146.775 181.808 147.567 181.856 148.623 181.952C149.679 182 150.735 182.216 151.791 182.6C152.847 182.936 153.759 183.488 154.527 184.256C155.343 184.976 155.751 186.008 155.751 187.352C155.751 188.12 155.607 189.32 155.319 190.952C155.031 192.536 154.623 194.384 154.095 196.496C153.615 198.56 153.039 200.816 152.367 203.264C151.743 205.712 151.095 208.184 150.423 210.68C149.751 213.176 149.055 215.6 148.335 217.952C147.663 220.304 147.015 222.44 146.391 224.36C145.815 226.232 145.287 227.816 144.807 229.112C144.327 230.408 143.991 231.248 143.799 231.632C143.511 232.16 143.103 232.52 142.575 232.712C142.047 232.904 141.519 233 140.991 233H134.151C132.903 233 131.847 232.76 130.983 232.28C130.167 231.8 129.471 231.176 128.895 230.408C128.367 229.64 127.935 228.776 127.599 227.816C127.311 226.856 127.119 225.872 127.023 224.864L123.423 192.536C123.135 194.648 122.799 197.024 122.415 199.664C122.079 202.304 121.695 204.992 121.263 207.728C120.879 210.464 120.495 213.152 120.111 215.792C119.727 218.432 119.343 220.856 118.959 223.064C118.575 225.224 118.215 227.072 117.879 228.608C117.543 230.144 117.255 231.152 117.015 231.632C116.775 232.16 116.391 232.52 115.863 232.712C115.335 232.904 114.783 233 114.207 233H107.367C106.167 233 105.159 232.784 104.343 232.352C103.575 231.872 102.927 231.248 102.399 230.48C101.871 229.712 101.439 228.848 101.103 227.888C100.767 226.88 100.479 225.872 100.239 224.864C98.2714 217.04 96.6634 210.608 95.4154 205.568C94.2154 200.528 93.2554 196.496 92.5354 193.472C91.8154 190.4 91.3114 188.168 91.0234 186.776C90.7834 185.336 90.6634 184.304 90.6634 183.68C90.6634 182.864 90.9034 182.336 91.3834 182.096C91.9114 181.856 92.9914 181.736 94.6234 181.736C96.6394 181.736 98.3194 181.88 99.6634 182.168C101.055 182.456 102.183 182.912 103.047 183.536C103.911 184.112 104.559 184.904 104.991 185.912C105.471 186.872 105.783 188.048 105.927 189.44C105.927 189.632 105.951 189.92 105.999 190.304C106.047 190.64 106.095 191.216 106.143 192.032C106.239 192.848 106.359 193.976 106.503 195.416C106.695 196.808 106.911 198.68 107.151 201.032C107.439 203.384 107.775 206.312 108.159 209.816C108.591 213.272 109.095 217.424 109.671 222.272C110.199 219.344 110.607 216.992 110.895 215.216C111.231 213.392 111.519 211.808 111.759 210.464C111.999 209.072 112.215 207.752 112.407 206.504C112.599 205.208 112.815 203.624 113.055 201.752C113.343 199.832 113.655 197.432 113.991 194.552C114.375 191.672 114.855 187.928 115.431 183.32C115.479 182.984 115.671 182.72 116.007 182.528C116.391 182.336 116.847 182.192 117.375 182.096C117.903 182 118.479 181.952 119.103 181.952C119.775 181.904 120.399 181.88 120.975 181.88C122.895 181.88 124.527 182 125.871 182.24C127.215 182.432 128.319 182.792 129.183 183.32C130.095 183.848 130.815 184.568 131.343 185.48C131.871 186.344 132.303 187.424 132.639 188.72C132.783 189.344 132.951 190.208 133.143 191.312C133.335 192.368 133.551 194.072 133.791 196.424C134.079 198.776 134.415 202.016 134.799 206.144C135.231 210.224 135.783 215.6 136.455 222.272ZM156.089 224.144C156.089 219.824 158.033 216.44 161.921 213.992C165.809 211.544 171.545 210.224 179.129 210.032C179.177 209.504 179.201 209.072 179.201 208.736C179.249 208.352 179.273 207.896 179.273 207.368C179.273 205.832 178.985 204.608 178.409 203.696C177.833 202.784 176.633 202.328 174.809 202.328C173.801 202.328 172.985 202.472 172.361 202.76C171.737 203.048 171.233 203.456 170.849 203.984C170.465 204.464 170.153 205.064 169.913 205.784C169.673 206.504 169.457 207.296 169.265 208.16C169.169 208.592 168.953 208.88 168.617 209.024C168.281 209.12 167.753 209.168 167.033 209.168C162.137 209.168 159.689 207.32 159.689 203.624C159.689 202.136 160.025 200.72 160.697 199.376C161.417 198.032 162.449 196.88 163.793 195.92C165.185 194.912 166.913 194.12 168.977 193.544C171.041 192.968 173.441 192.68 176.177 192.68C181.505 192.68 185.369 193.784 187.769 195.992C190.169 198.2 191.369 201.32 191.369 205.352C191.369 205.88 191.297 206.84 191.153 208.232C191.057 209.576 190.913 211.016 190.721 212.552C190.577 214.04 190.433 215.456 190.289 216.8C190.193 218.144 190.145 219.08 190.145 219.608C190.145 220.808 190.361 221.672 190.793 222.2C191.225 222.68 191.705 223.016 192.233 223.208C192.809 223.4 193.313 223.544 193.745 223.64C194.177 223.736 194.393 223.976 194.393 224.36C194.393 225.416 194.249 226.496 193.961 227.6C193.673 228.704 193.193 229.712 192.521 230.624C191.897 231.536 191.009 232.28 189.857 232.856C188.753 233.432 187.385 233.72 185.753 233.72C183.449 233.72 181.721 233.168 180.569 232.064C179.417 230.96 178.649 229.424 178.265 227.456C177.113 229.136 175.601 230.6 173.729 231.848C171.905 233.096 169.505 233.72 166.529 233.72C165.089 233.72 163.721 233.552 162.425 233.216C161.177 232.88 160.073 232.328 159.113 231.56C158.201 230.792 157.457 229.808 156.881 228.608C156.353 227.36 156.089 225.872 156.089 224.144ZM178.481 215.936C177.233 215.936 176.009 216.032 174.809 216.224C173.609 216.416 172.529 216.728 171.569 217.16C170.657 217.544 169.913 218.072 169.337 218.744C168.761 219.416 168.473 220.232 168.473 221.192C168.473 222.296 168.809 223.064 169.481 223.496C170.201 223.928 170.969 224.144 171.785 224.144C172.553 224.144 173.321 223.976 174.089 223.64C174.857 223.304 175.529 222.8 176.105 222.128C176.729 221.408 177.257 220.544 177.689 219.536C178.121 218.528 178.385 217.328 178.481 215.936ZM214.299 203.12C214.155 204.944 213.987 206.744 213.795 208.52C213.651 210.296 213.507 211.976 213.363 213.56C213.219 215.144 213.099 216.56 213.003 217.808C212.955 219.056 212.931 220.016 212.931 220.688C212.931 221.936 213.075 222.776 213.363 223.208C213.651 223.592 214.131 223.784 214.803 223.784C215.331 223.784 215.787 223.688 216.171 223.496C216.555 223.304 216.915 223.088 217.251 222.848C217.587 222.608 217.875 222.392 218.115 222.2C218.403 222.008 218.715 221.912 219.051 221.912C219.387 221.912 219.699 222.104 219.987 222.488C220.275 222.872 220.419 223.76 220.419 225.152C220.419 227.792 219.699 229.88 218.259 231.416C216.819 232.952 214.347 233.72 210.843 233.72C207.387 233.72 204.819 232.928 203.139 231.344C201.507 229.712 200.691 227.24 200.691 223.928C200.691 223.208 200.715 222.368 200.763 221.408C200.859 220.4 200.979 219.104 201.123 217.52C201.267 215.936 201.435 213.992 201.627 211.688C201.867 209.384 202.107 206.528 202.347 203.12H198.531C198.147 203.12 197.907 203.048 197.811 202.904C197.763 202.712 197.739 202.448 197.739 202.112L197.955 198.44C198.003 197.816 198.075 197.216 198.171 196.64C198.315 196.016 198.555 195.464 198.891 194.984C199.275 194.504 199.803 194.12 200.475 193.832C201.147 193.544 202.035 193.4 203.139 193.4C203.475 192.536 203.859 191.504 204.291 190.304C204.723 189.104 205.155 187.952 205.587 186.848C206.019 185.696 206.427 184.736 206.811 183.968C207.243 183.2 207.627 182.816 207.963 182.816H210.051C212.067 182.816 213.459 183.44 214.227 184.688C214.995 185.936 215.379 187.424 215.379 189.152C215.379 190.112 215.307 191.528 215.163 193.4H222.723C223.491 193.4 223.875 193.736 223.875 194.408L223.587 198.296C223.491 199.736 223.083 200.912 222.363 201.824C221.691 202.688 220.275 203.12 218.115 203.12H214.299ZM245.229 224.144C246.621 224.144 247.821 223.952 248.829 223.568C249.885 223.184 250.797 222.752 251.565 222.272C252.333 221.792 252.981 221.36 253.509 220.976C254.037 220.592 254.517 220.4 254.949 220.4C256.053 220.4 256.605 221.12 256.605 222.56C256.605 222.896 256.533 223.376 256.389 224C256.245 224.576 256.053 225.2 255.813 225.872C255.573 226.496 255.309 227.096 255.021 227.672C254.781 228.248 254.541 228.68 254.301 228.968C254.061 229.208 253.629 229.592 253.005 230.12C252.429 230.648 251.637 231.176 250.629 231.704C249.621 232.232 248.445 232.688 247.101 233.072C245.757 233.504 244.269 233.72 242.637 233.72C240.813 233.72 238.917 233.456 236.949 232.928C235.029 232.352 233.277 231.392 231.693 230.048C230.109 228.656 228.789 226.808 227.733 224.504C226.725 222.152 226.221 219.224 226.221 215.72C226.221 214.472 226.293 213.056 226.437 211.472C226.629 209.84 226.989 208.184 227.517 206.504C228.045 204.776 228.741 203.096 229.605 201.464C230.517 199.784 231.717 198.296 233.205 197C234.693 195.704 236.469 194.672 238.533 193.904C240.645 193.088 243.141 192.68 246.021 192.68C248.373 192.68 250.389 192.968 252.069 193.544C253.797 194.072 255.213 194.816 256.317 195.776C257.421 196.688 258.237 197.768 258.765 199.016C259.341 200.264 259.629 201.608 259.629 203.048C259.629 205.64 258.813 207.56 257.181 208.808C255.549 210.008 253.245 210.608 250.269 210.608C249.549 210.608 249.045 210.56 248.757 210.464C248.517 210.32 248.397 210.032 248.397 209.6C248.397 208.448 248.373 207.416 248.325 206.504C248.277 205.592 248.133 204.824 247.893 204.2C247.701 203.576 247.389 203.096 246.957 202.76C246.525 202.424 245.901 202.256 245.085 202.256C243.597 202.256 242.397 202.736 241.485 203.696C240.621 204.656 239.949 205.832 239.469 207.224C239.037 208.568 238.749 209.96 238.605 211.4C238.509 212.84 238.461 214.04 238.461 215C238.461 218.408 238.989 220.784 240.045 222.128C241.149 223.472 242.877 224.144 245.229 224.144ZM287.551 224.072C287.695 222.488 287.839 220.832 287.983 219.104C288.175 217.376 288.319 215.72 288.415 214.136C288.559 212.552 288.679 211.136 288.775 209.888C288.871 208.64 288.919 207.728 288.919 207.152C288.919 205.904 288.607 204.8 287.983 203.84C287.407 202.832 286.255 202.328 284.527 202.328C282.223 202.328 280.351 203.408 278.911 205.568C277.519 207.728 276.703 210.608 276.463 214.208C276.367 215.216 276.247 216.632 276.103 218.456C275.959 220.232 275.815 222.056 275.671 223.928C275.527 225.752 275.383 227.408 275.239 228.896C275.143 230.336 275.095 231.224 275.095 231.56C275.095 232.136 274.975 232.52 274.735 232.712C274.543 232.904 274.135 233 273.511 233H270.919C269.431 233 268.207 232.856 267.247 232.568C266.335 232.232 265.591 231.776 265.015 231.2C264.487 230.624 264.103 229.928 263.863 229.112C263.671 228.248 263.575 227.264 263.575 226.16C263.575 225.104 263.647 223.64 263.791 221.768C263.983 219.848 264.223 217.232 264.511 213.92C264.799 210.56 265.135 206.288 265.519 201.104C265.903 195.92 266.311 189.488 266.743 181.808C266.791 180.752 266.911 180.128 267.103 179.936C267.247 179.792 267.631 179.72 268.255 179.72H271.063C272.503 179.72 273.703 179.888 274.663 180.224C275.623 180.56 276.391 181.016 276.967 181.592C277.543 182.168 277.951 182.84 278.191 183.608C278.431 184.328 278.551 185.096 278.551 185.912C278.551 186.776 278.455 188.384 278.263 190.736C278.119 193.088 277.927 195.848 277.687 199.016C279.127 196.616 280.711 194.96 282.439 194.048C284.215 193.136 286.447 192.68 289.135 192.68C291.151 192.68 292.903 192.896 294.391 193.328C295.879 193.76 297.103 194.504 298.063 195.56C299.071 196.568 299.815 197.912 300.295 199.592C300.775 201.224 301.015 203.264 301.015 205.712C301.015 206.48 300.943 207.8 300.799 209.672C300.655 211.544 300.463 213.68 300.223 216.08C300.031 218.48 299.815 221 299.575 223.64C299.383 226.232 299.215 228.608 299.071 230.768C299.023 231.296 298.975 231.704 298.927 231.992C298.879 232.28 298.783 232.496 298.639 232.64C298.543 232.784 298.375 232.88 298.135 232.928C297.895 232.976 297.559 233 297.127 233H294.823C293.287 233 292.039 232.856 291.079 232.568C290.119 232.28 289.375 231.872 288.847 231.344C288.319 230.816 287.935 230.168 287.695 229.4C287.503 228.584 287.407 227.672 287.407 226.664C287.407 226.184 287.407 225.728 287.407 225.296C287.455 224.864 287.503 224.456 287.551 224.072ZM324.084 233.72C321.972 233.72 319.86 233.456 317.748 232.928C315.684 232.4 313.812 231.488 312.132 230.192C310.5 228.896 309.156 227.168 308.1 225.008C307.044 222.848 306.516 220.136 306.516 216.872C306.516 215.672 306.612 214.232 306.804 212.552C306.996 210.872 307.356 209.144 307.884 207.368C308.46 205.592 309.228 203.84 310.188 202.112C311.196 200.336 312.492 198.752 314.076 197.36C315.66 195.968 317.58 194.84 319.836 193.976C322.092 193.112 324.78 192.68 327.9 192.68C330.396 192.68 332.508 192.968 334.236 193.544C335.964 194.12 337.356 194.912 338.412 195.92C339.468 196.88 340.236 198.008 340.716 199.304C341.196 200.6 341.436 201.992 341.436 203.48C341.436 205.688 340.98 207.56 340.068 209.096C339.204 210.632 338.052 211.928 336.612 212.984C335.22 213.992 333.66 214.784 331.932 215.36C330.204 215.936 328.5 216.392 326.82 216.728C325.14 217.016 323.58 217.208 322.14 217.304C320.748 217.352 319.668 217.376 318.9 217.376C318.9 218.288 319.02 219.2 319.26 220.112C319.548 220.976 319.956 221.744 320.484 222.416C321.012 223.088 321.708 223.64 322.572 224.072C323.436 224.504 324.492 224.72 325.74 224.72C326.988 224.72 327.948 224.528 328.62 224.144C329.34 223.712 329.916 223.256 330.348 222.776C330.78 222.248 331.14 221.792 331.428 221.408C331.764 220.976 332.196 220.76 332.724 220.76C332.964 220.76 333.372 220.832 333.948 220.976C334.572 221.072 335.196 221.312 335.82 221.696C336.444 222.08 336.996 222.608 337.476 223.28C337.956 223.952 338.196 224.816 338.196 225.872C338.196 227.264 337.764 228.464 336.9 229.472C336.036 230.48 334.908 231.296 333.516 231.92C332.172 232.544 330.66 233 328.98 233.288C327.3 233.576 325.668 233.72 324.084 233.72ZM325.452 202.256C324.396 202.256 323.484 202.568 322.716 203.192C321.996 203.768 321.372 204.512 320.844 205.424C320.364 206.336 319.98 207.344 319.692 208.448C319.452 209.552 319.26 210.608 319.116 211.616C322.092 211.568 324.492 211.064 326.316 210.104C328.188 209.144 329.124 207.776 329.124 206C329.124 205.04 328.812 204.176 328.188 203.408C327.612 202.64 326.7 202.256 325.452 202.256ZM362.548 192.68C366.628 192.68 369.628 193.496 371.548 195.128C373.468 196.712 374.428 198.752 374.428 201.248C374.428 203.36 373.756 204.968 372.412 206.072C371.116 207.176 369.22 207.728 366.724 207.728C366.052 207.728 365.596 207.656 365.356 207.512C365.116 207.368 364.996 207.104 364.996 206.72C364.996 206.288 364.948 205.808 364.852 205.28C364.804 204.704 364.636 204.176 364.348 203.696C364.108 203.168 363.7 202.736 363.124 202.4C362.596 202.064 361.828 201.896 360.82 201.896C359.476 201.896 358.396 202.232 357.58 202.904C356.764 203.528 356.356 204.32 356.356 205.28C356.356 206.288 356.764 207.104 357.58 207.728C358.444 208.304 359.5 208.856 360.748 209.384C362.044 209.912 363.436 210.464 364.924 211.04C366.412 211.568 367.78 212.288 369.028 213.2C370.324 214.112 371.38 215.264 372.196 216.656C373.06 218 373.492 219.752 373.492 221.912C373.492 225.368 372.268 228.2 369.82 230.408C367.372 232.616 363.7 233.72 358.804 233.72C357.46 233.72 355.9 233.6 354.124 233.36C352.396 233.168 350.74 232.856 349.156 232.424C347.572 231.944 346.228 231.32 345.124 230.552C344.068 229.784 343.54 228.824 343.54 227.672C343.54 227.24 343.612 226.712 343.756 226.088C343.948 225.464 344.212 224.864 344.548 224.288C344.932 223.712 345.364 223.232 345.844 222.848C346.372 222.416 346.996 222.2 347.716 222.2C348.292 222.2 348.82 222.344 349.3 222.632C349.78 222.92 350.332 223.232 350.956 223.568C351.628 223.856 352.444 224.144 353.404 224.432C354.364 224.72 355.636 224.864 357.22 224.864C358.42 224.864 359.476 224.72 360.388 224.432C361.348 224.144 361.828 223.496 361.828 222.488C361.828 221.576 361.444 220.856 360.676 220.328C359.908 219.752 358.924 219.224 357.724 218.744C356.572 218.264 355.3 217.76 353.908 217.232C352.564 216.656 351.292 215.912 350.092 215C348.94 214.088 347.98 212.936 347.212 211.544C346.444 210.104 346.06 208.256 346.06 206C346.06 203.552 346.54 201.488 347.5 199.808C348.508 198.08 349.78 196.688 351.316 195.632C352.9 194.576 354.676 193.832 356.644 193.4C358.612 192.92 360.58 192.68 362.548 192.68Z" fill="white"/>
<defs>
<linearGradient id="paint0_linear" x1="200" y1="40" x2="200" y2="320" gradientUnits="userSpaceOnUse">
<stop stop-color="#64958F"/>
<stop offset="0.0001" stop-color="#318FB5"/>
<stop offset="1" stop-color="#005086"/>
</linearGradient>
</defs>
</svg>
