<svg width="250" height="250" viewBox="0 0 250 250" fill="none" xmlns="http://www.w3.org/2000/svg">
<circle cx="125" cy="125" r="125" fill="url(#paint0_linear)"/>
<mask id="mask0" mask-type="alpha" maskUnits="userSpaceOnUse" x="0" y="0" width="250" height="250">
<circle cx="125" cy="125" r="125" fill="url(#paint1_linear)"/>
</mask>
<g mask="url(#mask0)">
<path d="M141.281 168.922C126.281 183.172 115.547 192.453 109.078 196.766C102.609 201.078 96.4219 203.234 90.5156 203.234C75.7031 203.234 68.7188 190.156 69.5625 164C60.1875 177.406 51.5156 187.297 43.5469 193.672C35.6719 200.047 27.5156 203.234 19.0781 203.234C10.8281 203.234 3.79688 199.391 -2.01562 191.703C-7.73438 183.922 -10.5938 174.406 -10.5938 163.156C-10.5938 149.094 -6.75 135.688 0.9375 122.938C8.71875 110.188 18.6562 99.875 30.75 92C42.8438 84.125 53.5312 80.1875 62.8125 80.1875C74.5312 80.1875 82.7344 85.5781 87.4219 96.3594L116.109 80.4688H123.984L111.609 121.672C105.234 142.391 102.047 156.594 102.047 164.281C102.047 172.344 104.906 176.375 110.625 176.375C114.281 176.375 118.312 174.453 122.719 170.609C127.125 166.672 133.312 160.719 141.281 152.75V168.922ZM38.3438 176.656C47.7188 176.656 56.5312 168.688 64.7812 152.75C73.125 136.719 77.2969 121.953 77.2969 108.453C77.2969 103.203 76.125 99.125 73.7812 96.2188C71.4375 93.2188 68.2969 91.7188 64.3594 91.7188C54.9844 91.7188 46.0781 99.6875 37.6406 115.625C29.2969 131.562 25.125 146.234 25.125 159.641C25.125 164.703 26.3438 168.828 28.7812 172.016C31.3125 175.109 34.5 176.656 38.3438 176.656Z" fill="white"/>
<path d="M266.047 37.9219C266.047 41.5781 260 50.5781 247.906 64.9219H245.375C243.5 64.1719 242.328 61.4062 241.859 56.625C240.828 46.9687 237.5 39.0937 231.875 33C226.25 26.8125 219.5 23.7188 211.625 23.7188C204.219 23.7188 197.844 26.4375 192.5 31.875C187.156 37.2188 184.484 43.6406 184.484 51.1406C184.484 56.5781 186.172 62.4375 189.547 68.7188C192.922 74.9062 201.688 84.75 215.844 98.25C230.094 111.75 239.234 122.531 243.266 130.594C247.297 138.562 249.312 146.156 249.312 153.375C249.312 170.062 242.047 184.781 227.516 197.531C213.078 210.188 196.156 216.516 176.75 216.516C160.719 216.516 147.5 212.812 137.094 205.406C126.688 197.906 121.484 191.812 121.484 187.125C121.484 184.5 124.344 178.406 130.062 168.844C135.781 159.281 139.062 154.5 139.906 154.5C142.906 154.5 145.016 155.391 146.234 157.172C147.547 158.859 148.438 162.047 148.906 166.734C150.312 181.359 153.828 191.438 159.453 196.969C165.172 202.5 172.578 205.266 181.672 205.266C191.609 205.266 200.281 201.844 207.688 195C215.094 188.062 218.797 180.047 218.797 170.953C218.797 166.266 217.344 161.297 214.438 156.047C211.625 150.703 203.516 141.703 190.109 129.047C176.797 116.297 168.078 105.516 163.953 96.7031C159.828 87.8906 157.766 79.3125 157.766 70.9688C157.766 56.4375 163.25 43.0781 174.219 30.8906C185.188 18.7031 199.766 12.6094 217.953 12.6094C231.734 12.6094 243.172 15.7969 252.266 22.1719C261.453 28.4531 266.047 33.7031 266.047 37.9219Z" fill="white"/>
</g>
<defs>
<linearGradient id="paint0_linear" x1="125" y1="0" x2="125" y2="250" gradientUnits="userSpaceOnUse">
<stop stop-color="#439CDC"/>
<stop offset="0.9999" stop-color="#1CD6A9"/>
<stop offset="1" stop-color="#84FFF0"/>
</linearGradient>
<linearGradient id="paint1_linear" x1="125" y1="0" x2="125" y2="250" gradientUnits="userSpaceOnUse">
<stop stop-color="#439CDC"/>
<stop offset="0.9999" stop-color="#1CD6A9"/>
<stop offset="1" stop-color="#84FFF0"/>
</linearGradient>
</defs>
</svg>
